<mxfile host="app.diagrams.net" modified="2020-10-15T22:14:34.893Z" agent="5.0 (Windows NT 10.0; Win64; x64) AppleWebKit/537.36 (KHTML, like Gecko) Chrome/86.0.4240.75 Safari/537.36" etag="NZoqqUMljo6GMIpWQsKg" version="13.8.0" type="github">
  <diagram id="ek9SvoUbZJLgTX0v-QCz" name="Page-1">
    <mxGraphModel dx="2107" dy="906" grid="1" gridSize="10" guides="1" tooltips="1" connect="1" arrows="1" fold="1" page="1" pageScale="1" pageWidth="827" pageHeight="1169" math="0" shadow="0">
      <root>
        <mxCell id="0" />
        <mxCell id="1" parent="0" />
        <mxCell id="N_aPm0FDeAfyOkNH4oF6-1" value="" style="rounded=1;arcSize=10;dashed=0;fillColor=none;gradientColor=none;strokeWidth=2;" parent="1" vertex="1">
          <mxGeometry x="-640" y="80" width="760" height="1080" as="geometry" />
        </mxCell>
        <mxCell id="N_aPm0FDeAfyOkNH4oF6-2" value="" style="rounded=1;arcSize=10;dashed=0;fillColor=none;gradientColor=none;strokeWidth=2;" parent="1" vertex="1">
          <mxGeometry x="-560" y="160" width="600" height="920" as="geometry" />
        </mxCell>
        <mxCell id="zP09fTPhJV7iCSvq5EqF-148" value="WebServersAutoScalingGroup" style="rounded=1;arcSize=10;dashed=1;fillColor=none;gradientColor=none;dashPattern=8 3 1 3;strokeWidth=2;shadow=0;glass=0;sketch=0;fontColor=none;html=0;strokeColor=#B3B3B3;labelPosition=center;verticalLabelPosition=bottom;align=center;verticalAlign=top;whiteSpace=wrap;" parent="1" vertex="1">
          <mxGeometry x="-280" y="320" width="160" height="560" as="geometry" />
        </mxCell>
        <mxCell id="N_aPm0FDeAfyOkNH4oF6-3" value="" style="rounded=1;arcSize=10;dashed=1;strokeColor=#F59D56;fillColor=none;gradientColor=none;dashPattern=8 4;strokeWidth=2;" parent="1" vertex="1">
          <mxGeometry x="-480" y="240" width="440" height="280" as="geometry" />
        </mxCell>
        <mxCell id="N_aPm0FDeAfyOkNH4oF6-4" value="" style="rounded=1;arcSize=10;dashed=0;fillColor=none;gradientColor=none;strokeWidth=2;" parent="1" vertex="1">
          <mxGeometry x="-440" y="280" width="360" height="201" as="geometry" />
        </mxCell>
        <mxCell id="N_aPm0FDeAfyOkNH4oF6-5" value="" style="rounded=1;arcSize=10;dashed=1;strokeColor=#F59D56;fillColor=none;gradientColor=none;dashPattern=8 4;strokeWidth=2;" parent="1" vertex="1">
          <mxGeometry x="-480" y="680" width="440" height="320" as="geometry" />
        </mxCell>
        <mxCell id="N_aPm0FDeAfyOkNH4oF6-6" value="172.31.0.0/16" style="dashed=0;html=1;shape=mxgraph.aws3.virtual_private_cloud;fillColor=#F58536;gradientColor=none;dashed=0;labelPosition=center;verticalLabelPosition=bottom;align=center;verticalAlign=top;labelBackgroundColor=#ffffff;labelBorderColor=#FFFFFF;shadow=1;" parent="1" vertex="1">
          <mxGeometry x="-520" y="140" width="52" height="36" as="geometry" />
        </mxCell>
        <mxCell id="N_aPm0FDeAfyOkNH4oF6-7" value="&lt;font color=&quot;#ff8000&quot;&gt;&lt;b&gt;sa-east-1&lt;/b&gt;&lt;/font&gt;" style="dashed=0;html=1;shape=mxgraph.aws3.cloud;fillColor=#F58536;gradientColor=none;dashed=0;shadow=1;labelPosition=center;verticalLabelPosition=bottom;align=center;verticalAlign=top;" parent="1" vertex="1">
          <mxGeometry x="-600" y="60" width="52" height="36" as="geometry" />
        </mxCell>
        <mxCell id="N_aPm0FDeAfyOkNH4oF6-8" value="172.31.0.0/20" style="dashed=0;html=1;shape=mxgraph.aws3.permissions;fillColor=#D9A741;gradientColor=none;dashed=0;shadow=1;labelPosition=right;verticalLabelPosition=middle;align=left;verticalAlign=middle;labelBackgroundColor=#ffffff;labelBorderColor=#FFFFFF;" parent="1" vertex="1">
          <mxGeometry x="-431.0000000000001" y="270" width="17.14" height="20" as="geometry" />
        </mxCell>
        <mxCell id="N_aPm0FDeAfyOkNH4oF6-11" value="sa-east-1a" style="text;html=1;strokeColor=none;fillColor=none;align=center;verticalAlign=middle;whiteSpace=wrap;rounded=0;fontStyle=1;fontColor=#FF8000;" parent="1" vertex="1">
          <mxGeometry x="-520" y="220" width="150" height="20" as="geometry" />
        </mxCell>
        <mxCell id="N_aPm0FDeAfyOkNH4oF6-12" value="sa-east-1c" style="text;html=1;strokeColor=none;fillColor=none;align=center;verticalAlign=middle;whiteSpace=wrap;rounded=0;fontStyle=1;fontColor=#FF8000;" parent="1" vertex="1">
          <mxGeometry x="-520" y="660" width="150" height="20" as="geometry" />
        </mxCell>
        <mxCell id="N_aPm0FDeAfyOkNH4oF6-17" value="&lt;span&gt;igw&lt;/span&gt;" style="outlineConnect=0;dashed=0;verticalLabelPosition=bottom;verticalAlign=top;align=center;html=1;shape=mxgraph.aws3.internet_gateway;fillColor=#F58534;gradientColor=none;fontColor=#000000;fontSize=12;labelBackgroundColor=#ffffff;whiteSpace=wrap;labelBorderColor=#FFFFFF;shadow=1;" parent="1" vertex="1">
          <mxGeometry x="-578.3300000000002" y="540" width="38.33" height="40" as="geometry" />
        </mxCell>
        <mxCell id="N_aPm0FDeAfyOkNH4oF6-28" value="Internet" style="aspect=fixed;perimeter=ellipsePerimeter;html=1;align=center;shadow=0;dashed=0;spacingTop=3;image;image=img/lib/active_directory/internet_cloud.svg;fontSize=12;fontColor=#000000;" parent="1" vertex="1">
          <mxGeometry x="-740" y="544.25" width="50" height="31.5" as="geometry" />
        </mxCell>
        <mxCell id="N_aPm0FDeAfyOkNH4oF6-47" value="Nagios" style="outlineConnect=0;dashed=0;verticalLabelPosition=bottom;verticalAlign=top;align=center;html=1;shape=mxgraph.aws3.instance;fillColor=#F58534;shadow=1;sketch=0;" parent="1" vertex="1">
          <mxGeometry x="-360" y="361" width="40" height="40" as="geometry" />
        </mxCell>
        <mxCell id="N_aPm0FDeAfyOkNH4oF6-164" style="edgeStyle=orthogonalEdgeStyle;rounded=0;orthogonalLoop=1;jettySize=auto;html=1;exitX=1;exitY=0.5;exitDx=0;exitDy=0;entryX=0;entryY=0.5;entryDx=0;entryDy=0;entryPerimeter=0;fillColor=#0050ef;startArrow=classic;startFill=1;endArrow=classic;endFill=1;elbow=vertical;curved=1;strokeColor=#99CCFF;" parent="1" source="N_aPm0FDeAfyOkNH4oF6-28" target="N_aPm0FDeAfyOkNH4oF6-17" edge="1">
          <mxGeometry relative="1" as="geometry">
            <mxPoint x="-600" y="323.99199999999996" as="sourcePoint" />
            <mxPoint x="-632.75" y="510.1300000000001" as="targetPoint" />
          </mxGeometry>
        </mxCell>
        <mxCell id="zP09fTPhJV7iCSvq5EqF-17" value="" style="rounded=1;arcSize=10;dashed=0;gradientColor=none;strokeWidth=2;strokeColor=none;fillColor=#CCE5FF;" parent="1" vertex="1">
          <mxGeometry x="-230" y="370.12" width="40" height="40" as="geometry" />
        </mxCell>
        <mxCell id="zP09fTPhJV7iCSvq5EqF-18" value="" style="outlineConnect=0;dashed=0;verticalLabelPosition=bottom;verticalAlign=top;align=center;html=1;shape=mxgraph.aws3.instance;fillColor=#F58534;shadow=1;sketch=0;" parent="1" vertex="1">
          <mxGeometry x="-240" y="360.25" width="40" height="40" as="geometry" />
        </mxCell>
        <mxCell id="zP09fTPhJV7iCSvq5EqF-22" value="" style="rounded=1;whiteSpace=wrap;html=1;shadow=0;glass=0;sketch=0;strokeColor=#FFFFFF;strokeWidth=4;fillColor=#FFFFFF;gradientColor=none;fontColor=none;" parent="1" vertex="1">
          <mxGeometry x="-230" y="370.12" width="40" height="40" as="geometry" />
        </mxCell>
        <mxCell id="zP09fTPhJV7iCSvq5EqF-20" value="" style="outlineConnect=0;dashed=0;verticalLabelPosition=bottom;verticalAlign=top;align=center;html=1;shape=mxgraph.aws3.instance;fillColor=#F58534;shadow=1;sketch=0;" parent="1" vertex="1">
          <mxGeometry x="-230" y="371" width="40" height="40" as="geometry" />
        </mxCell>
        <mxCell id="zP09fTPhJV7iCSvq5EqF-24" value="" style="rounded=1;arcSize=10;dashed=0;gradientColor=none;strokeWidth=2;strokeColor=none;fillColor=#CCE5FF;" parent="1" vertex="1">
          <mxGeometry x="-220" y="380.12" width="40" height="40" as="geometry" />
        </mxCell>
        <mxCell id="zP09fTPhJV7iCSvq5EqF-25" value="" style="rounded=1;whiteSpace=wrap;html=1;shadow=0;glass=0;sketch=0;strokeColor=#FFFFFF;strokeWidth=4;fillColor=#FFFFFF;gradientColor=none;fontColor=none;" parent="1" vertex="1">
          <mxGeometry x="-220" y="380.12" width="40" height="40" as="geometry" />
        </mxCell>
        <mxCell id="zP09fTPhJV7iCSvq5EqF-26" value="" style="outlineConnect=0;dashed=0;verticalLabelPosition=bottom;verticalAlign=top;align=center;html=1;shape=mxgraph.aws3.instance;fillColor=#F58534;shadow=1;sketch=0;" parent="1" vertex="1">
          <mxGeometry x="-220" y="381" width="40" height="40" as="geometry" />
        </mxCell>
        <mxCell id="zP09fTPhJV7iCSvq5EqF-27" value="" style="rounded=1;arcSize=10;dashed=0;gradientColor=none;strokeWidth=2;strokeColor=none;fillColor=#CCE5FF;" parent="1" vertex="1">
          <mxGeometry x="-210" y="390.12" width="40" height="40" as="geometry" />
        </mxCell>
        <mxCell id="zP09fTPhJV7iCSvq5EqF-28" value="" style="rounded=1;whiteSpace=wrap;html=1;shadow=0;glass=0;sketch=0;strokeColor=#FFFFFF;strokeWidth=4;fillColor=#FFFFFF;gradientColor=none;fontColor=none;" parent="1" vertex="1">
          <mxGeometry x="-210" y="390.12" width="40" height="40" as="geometry" />
        </mxCell>
        <mxCell id="zP09fTPhJV7iCSvq5EqF-29" value="WebServer" style="outlineConnect=0;dashed=0;verticalLabelPosition=bottom;verticalAlign=top;align=center;html=1;shape=mxgraph.aws3.instance;fillColor=#F58534;shadow=1;sketch=0;" parent="1" vertex="1">
          <mxGeometry x="-210" y="390" width="40" height="41" as="geometry" />
        </mxCell>
        <mxCell id="zP09fTPhJV7iCSvq5EqF-116" value="" style="rounded=1;arcSize=10;dashed=0;fillColor=none;gradientColor=none;strokeWidth=2;" parent="1" vertex="1">
          <mxGeometry x="-440" y="721.75" width="360" height="238.25" as="geometry" />
        </mxCell>
        <mxCell id="zP09fTPhJV7iCSvq5EqF-117" value="172.31.32.0/20" style="dashed=0;html=1;shape=mxgraph.aws3.permissions;fillColor=#D9A741;gradientColor=none;dashed=0;shadow=1;labelPosition=right;verticalLabelPosition=middle;align=left;verticalAlign=middle;labelBackgroundColor=#ffffff;labelBorderColor=#FFFFFF;" parent="1" vertex="1">
          <mxGeometry x="-431.0000000000001" y="711" width="17.14" height="20" as="geometry" />
        </mxCell>
        <mxCell id="zP09fTPhJV7iCSvq5EqF-120" value="" style="rounded=1;arcSize=10;dashed=0;gradientColor=none;strokeWidth=2;strokeColor=none;fillColor=#CCE5FF;" parent="1" vertex="1">
          <mxGeometry x="-230" y="770.87" width="40" height="40" as="geometry" />
        </mxCell>
        <mxCell id="zP09fTPhJV7iCSvq5EqF-121" value="" style="outlineConnect=0;dashed=0;verticalLabelPosition=bottom;verticalAlign=top;align=center;html=1;shape=mxgraph.aws3.instance;fillColor=#F58534;shadow=1;sketch=0;" parent="1" vertex="1">
          <mxGeometry x="-240" y="761" width="40" height="40" as="geometry" />
        </mxCell>
        <mxCell id="zP09fTPhJV7iCSvq5EqF-122" value="" style="rounded=1;whiteSpace=wrap;html=1;shadow=0;glass=0;sketch=0;strokeColor=#FFFFFF;strokeWidth=4;fillColor=#FFFFFF;gradientColor=none;fontColor=none;" parent="1" vertex="1">
          <mxGeometry x="-230" y="770.87" width="40" height="40" as="geometry" />
        </mxCell>
        <mxCell id="zP09fTPhJV7iCSvq5EqF-123" value="" style="outlineConnect=0;dashed=0;verticalLabelPosition=bottom;verticalAlign=top;align=center;html=1;shape=mxgraph.aws3.instance;fillColor=#F58534;shadow=1;sketch=0;" parent="1" vertex="1">
          <mxGeometry x="-230" y="771.75" width="40" height="40" as="geometry" />
        </mxCell>
        <mxCell id="zP09fTPhJV7iCSvq5EqF-124" value="" style="rounded=1;arcSize=10;dashed=0;gradientColor=none;strokeWidth=2;strokeColor=none;fillColor=#CCE5FF;" parent="1" vertex="1">
          <mxGeometry x="-220" y="780.87" width="40" height="40" as="geometry" />
        </mxCell>
        <mxCell id="zP09fTPhJV7iCSvq5EqF-125" value="" style="rounded=1;whiteSpace=wrap;html=1;shadow=0;glass=0;sketch=0;strokeColor=#FFFFFF;strokeWidth=4;fillColor=#FFFFFF;gradientColor=none;fontColor=none;" parent="1" vertex="1">
          <mxGeometry x="-220" y="780.87" width="40" height="40" as="geometry" />
        </mxCell>
        <mxCell id="zP09fTPhJV7iCSvq5EqF-126" value="" style="outlineConnect=0;dashed=0;verticalLabelPosition=bottom;verticalAlign=top;align=center;html=1;shape=mxgraph.aws3.instance;fillColor=#F58534;shadow=1;sketch=0;" parent="1" vertex="1">
          <mxGeometry x="-220" y="781.75" width="40" height="40" as="geometry" />
        </mxCell>
        <mxCell id="zP09fTPhJV7iCSvq5EqF-127" value="" style="rounded=1;arcSize=10;dashed=0;gradientColor=none;strokeWidth=2;strokeColor=none;fillColor=#CCE5FF;" parent="1" vertex="1">
          <mxGeometry x="-210" y="790.87" width="40" height="40" as="geometry" />
        </mxCell>
        <mxCell id="zP09fTPhJV7iCSvq5EqF-128" value="" style="rounded=1;whiteSpace=wrap;html=1;shadow=0;glass=0;sketch=0;strokeColor=#FFFFFF;strokeWidth=4;fillColor=#FFFFFF;gradientColor=none;fontColor=none;" parent="1" vertex="1">
          <mxGeometry x="-210" y="790.87" width="40" height="40" as="geometry" />
        </mxCell>
        <mxCell id="zP09fTPhJV7iCSvq5EqF-129" value="WebServer" style="outlineConnect=0;dashed=0;verticalLabelPosition=bottom;verticalAlign=top;align=center;html=1;shape=mxgraph.aws3.instance;fillColor=#F58534;shadow=1;sketch=0;" parent="1" vertex="1">
          <mxGeometry x="-210" y="791.75" width="40" height="40" as="geometry" />
        </mxCell>
        <mxCell id="N_aPm0FDeAfyOkNH4oF6-74" value="routing table" style="shape=table;startSize=40;container=1;collapsible=1;childLayout=tableLayout;fixedRows=1;rowLines=0;fontStyle=1;align=center;resizeLast=1;fillColor=#f5f5f5;strokeColor=#CCCCCC;spacingLeft=0;fontColor=#666666;" parent="1" vertex="1">
          <mxGeometry x="160" y="281" width="160" height="80" as="geometry">
            <mxRectangle x="1010" y="180" width="60" height="30" as="alternateBounds" />
          </mxGeometry>
        </mxCell>
        <mxCell id="N_aPm0FDeAfyOkNH4oF6-78" value="" style="shape=partialRectangle;collapsible=0;dropTarget=0;pointerEvents=0;fillColor=none;top=0;left=0;bottom=1;right=0;points=[[0,0.5],[1,0.5]];portConstraint=eastwest;strokeColor=#CCCCCC;align=center;spacingLeft=0;fontColor=#666666;" parent="N_aPm0FDeAfyOkNH4oF6-74" vertex="1">
          <mxGeometry y="40" width="160" height="20" as="geometry" />
        </mxCell>
        <mxCell id="N_aPm0FDeAfyOkNH4oF6-79" value="172.31.0.0/16" style="shape=partialRectangle;connectable=0;fillColor=none;top=0;left=0;bottom=0;right=0;fontStyle=1;overflow=hidden;strokeColor=#CCCCCC;align=center;spacingLeft=0;fontColor=#666666;" parent="N_aPm0FDeAfyOkNH4oF6-78" vertex="1">
          <mxGeometry width="80" height="20" as="geometry" />
        </mxCell>
        <mxCell id="N_aPm0FDeAfyOkNH4oF6-80" value="local" style="shape=partialRectangle;connectable=0;fillColor=none;top=0;left=0;bottom=0;right=0;align=center;spacingLeft=0;fontStyle=5;overflow=hidden;strokeColor=#CCCCCC;fontColor=#666666;" parent="N_aPm0FDeAfyOkNH4oF6-78" vertex="1">
          <mxGeometry x="80" width="80" height="20" as="geometry" />
        </mxCell>
        <mxCell id="N_aPm0FDeAfyOkNH4oF6-145" value="" style="shape=partialRectangle;collapsible=0;dropTarget=0;pointerEvents=0;fillColor=none;top=0;left=0;bottom=1;right=0;points=[[0,0.5],[1,0.5]];portConstraint=eastwest;strokeColor=#CCCCCC;align=center;spacingLeft=0;fontColor=#666666;" parent="N_aPm0FDeAfyOkNH4oF6-74" vertex="1">
          <mxGeometry y="60" width="160" height="20" as="geometry" />
        </mxCell>
        <mxCell id="N_aPm0FDeAfyOkNH4oF6-146" value="0.0.0.0/0" style="shape=partialRectangle;connectable=0;fillColor=none;top=0;left=0;bottom=0;right=0;fontStyle=1;overflow=hidden;strokeColor=#CCCCCC;align=center;spacingLeft=0;fontColor=#666666;" parent="N_aPm0FDeAfyOkNH4oF6-145" vertex="1">
          <mxGeometry width="80" height="20" as="geometry" />
        </mxCell>
        <mxCell id="N_aPm0FDeAfyOkNH4oF6-147" value="igw" style="shape=partialRectangle;connectable=0;fillColor=none;top=0;left=0;bottom=0;right=0;align=center;spacingLeft=0;fontStyle=5;overflow=hidden;strokeColor=#CCCCCC;fontColor=#666666;" parent="N_aPm0FDeAfyOkNH4oF6-145" vertex="1">
          <mxGeometry x="80" width="80" height="20" as="geometry" />
        </mxCell>
        <mxCell id="N_aPm0FDeAfyOkNH4oF6-228" value="security group" style="shape=table;html=1;whiteSpace=wrap;startSize=40;container=1;collapsible=0;childLayout=tableLayout;strokeColor=#CCCCCC;fillColor=#f5f5f5;align=center;fontStyle=1;spacingLeft=0;fontColor=#666666;" parent="1" vertex="1">
          <mxGeometry x="160" y="401.25" width="240" height="59.75" as="geometry" />
        </mxCell>
        <mxCell id="N_aPm0FDeAfyOkNH4oF6-229" value="" style="shape=partialRectangle;html=1;whiteSpace=wrap;collapsible=0;dropTarget=0;pointerEvents=0;fillColor=none;top=0;left=0;bottom=0;right=0;points=[[0,0.5],[1,0.5]];portConstraint=eastwest;spacingLeft=0;align=center;fontColor=#666666;" parent="N_aPm0FDeAfyOkNH4oF6-228" vertex="1">
          <mxGeometry y="40" width="240" height="20" as="geometry" />
        </mxCell>
        <mxCell id="N_aPm0FDeAfyOkNH4oF6-230" value="&lt;span style=&quot;font-weight: 700;&quot;&gt;all trafic&lt;/span&gt;" style="shape=partialRectangle;html=1;whiteSpace=wrap;connectable=0;fillColor=none;top=0;left=0;bottom=0;right=0;overflow=hidden;spacingLeft=0;align=center;fontColor=#666666;" parent="N_aPm0FDeAfyOkNH4oF6-229" vertex="1">
          <mxGeometry width="80" height="20" as="geometry" />
        </mxCell>
        <mxCell id="N_aPm0FDeAfyOkNH4oF6-231" value="&lt;span style=&quot;font-weight: 700&quot;&gt;0.0.0.0/0&lt;/span&gt;&lt;span style=&quot;font-weight: 700&quot;&gt;&lt;br&gt;&lt;/span&gt;" style="shape=partialRectangle;html=1;whiteSpace=wrap;connectable=0;fillColor=none;top=0;left=0;bottom=0;right=0;overflow=hidden;spacingLeft=0;align=center;fontColor=#666666;" parent="N_aPm0FDeAfyOkNH4oF6-229" vertex="1">
          <mxGeometry x="80" width="80" height="20" as="geometry" />
        </mxCell>
        <mxCell id="N_aPm0FDeAfyOkNH4oF6-232" value="0.0.0.0/0" style="shape=partialRectangle;html=1;whiteSpace=wrap;connectable=0;fillColor=none;top=0;left=0;bottom=0;right=0;overflow=hidden;spacingLeft=0;align=center;fontColor=#666666;" parent="N_aPm0FDeAfyOkNH4oF6-229" vertex="1">
          <mxGeometry x="160" width="80" height="20" as="geometry" />
        </mxCell>
        <mxCell id="P-Oz9vDdy9iM6EnFtb8f-1" value="WebServersLoadBalancer" style="outlineConnect=0;dashed=0;verticalLabelPosition=bottom;verticalAlign=top;align=center;html=1;shape=mxgraph.aws3.classic_load_balancer;fillColor=#F58534;gradientColor=none;" vertex="1" parent="1">
          <mxGeometry x="-302" y="556.5" width="44.08" height="46" as="geometry" />
        </mxCell>
      </root>
    </mxGraphModel>
  </diagram>
</mxfile>
